<?xml version="1.0" encoding="UTF-8"?>
<svg xmlns="http://www.w3.org/2000/svg" version="1.1" width="500" height="500" viewBox="0 0 500 500"><rect x="0" y="0" width="500" height="500" fill="#ffffff"/><g transform="scale(17.241)"><g transform="translate(0,0)"><g><g transform="translate(3.5,3.5)"><path fill-rule="evenodd" d="M-3.5 -3.5L-3.5 3.5L3.5 3.5L3.5 -3.5ZM-2.5 -2.5L-2.5 2.5L2.5 2.5L2.5 -2.5Z" fill="#000000"/><path fill-rule="evenodd" d="M-1.5 -1.5L-1.5 1.5L1.5 1.5L1.5 -1.5Z" fill="#000000"/></g></g><g><g transform="translate(25.5,3.5)"><g transform="rotate(90)"><path fill-rule="evenodd" d="M-3.5 -3.5L-3.5 3.5L3.5 3.5L3.5 -3.5ZM-2.5 -2.5L-2.5 2.5L2.5 2.5L2.5 -2.5Z" fill="#000000"/><path fill-rule="evenodd" d="M-1.5 -1.5L-1.5 1.5L1.5 1.5L1.5 -1.5Z" fill="#000000"/></g></g></g><g><g transform="translate(3.5,25.5)"><g transform="rotate(-90)"><path fill-rule="evenodd" d="M-3.5 -3.5L-3.5 3.5L3.5 3.5L3.5 -3.5ZM-2.5 -2.5L-2.5 2.5L2.5 2.5L2.5 -2.5Z" fill="#000000"/><path fill-rule="evenodd" d="M-1.5 -1.5L-1.5 1.5L1.5 1.5L1.5 -1.5Z" fill="#000000"/></g></g></g><path fill-rule="evenodd" d="M8 0L8 1L10 1L10 0ZM14 0L14 2L11 2L11 4L10 4L10 3L9 3L9 2L8 2L8 5L9 5L9 6L8 6L8 7L9 7L9 8L8 8L8 9L7 9L7 8L6 8L6 9L7 9L7 10L6 10L6 11L4 11L4 10L5 10L5 9L4 9L4 8L0 8L0 9L2 9L2 10L3 10L3 11L0 11L0 12L1 12L1 13L2 13L2 15L3 15L3 16L5 16L5 15L7 15L7 14L5 14L5 13L4 13L4 12L6 12L6 13L7 13L7 12L9 12L9 13L10 13L10 14L8 14L8 15L11 15L11 14L12 14L12 16L6 16L6 17L5 17L5 19L4 19L4 17L3 17L3 18L2 18L2 20L1 20L1 21L5 21L5 20L6 20L6 21L7 21L7 20L8 20L8 19L9 19L9 21L8 21L8 22L9 22L9 25L8 25L8 29L9 29L9 28L10 28L10 29L11 29L11 28L12 28L12 29L13 29L13 28L12 28L12 26L13 26L13 27L14 27L14 29L15 29L15 27L14 27L14 26L16 26L16 23L17 23L17 24L18 24L18 25L17 25L17 26L18 26L18 28L17 28L17 27L16 27L16 29L18 29L18 28L20 28L20 29L21 29L21 27L22 27L22 26L23 26L23 27L25 27L25 29L26 29L26 28L27 28L27 29L28 29L28 28L29 28L29 26L28 26L28 25L29 25L29 24L27 24L27 23L28 23L28 21L29 21L29 19L28 19L28 16L29 16L29 15L27 15L27 13L24 13L24 11L26 11L26 9L27 9L27 12L28 12L28 9L29 9L29 8L28 8L28 9L27 9L27 8L24 8L24 11L23 11L23 13L24 13L24 15L23 15L23 14L21 14L21 12L22 12L22 10L23 10L23 9L22 9L22 8L21 8L21 9L20 9L20 7L21 7L21 6L20 6L20 7L19 7L19 6L18 6L18 4L19 4L19 3L17 3L17 2L16 2L16 1L17 1L17 0L16 0L16 1L15 1L15 0ZM20 0L20 1L21 1L21 0ZM18 1L18 2L19 2L19 1ZM14 2L14 3L12 3L12 5L10 5L10 6L9 6L9 7L10 7L10 8L9 8L9 9L8 9L8 10L7 10L7 11L6 11L6 12L7 12L7 11L9 11L9 12L10 12L10 13L11 13L11 11L14 11L14 10L15 10L15 9L16 9L16 13L18 13L18 12L19 12L19 15L21 15L21 16L19 16L19 19L17 19L17 18L18 18L18 16L17 16L17 17L16 17L16 15L14 15L14 14L15 14L15 12L12 12L12 14L13 14L13 15L14 15L14 16L12 16L12 17L11 17L11 18L10 18L10 19L11 19L11 20L12 20L12 19L11 19L11 18L12 18L12 17L14 17L14 18L13 18L13 20L14 20L14 21L15 21L15 22L14 22L14 23L11 23L11 22L12 22L12 21L9 21L9 22L10 22L10 23L11 23L11 24L10 24L10 26L9 26L9 27L10 27L10 28L11 28L11 27L10 27L10 26L11 26L11 25L12 25L12 24L13 24L13 26L14 26L14 24L15 24L15 23L16 23L16 22L17 22L17 23L18 23L18 24L20 24L20 23L18 23L18 22L20 22L20 21L17 21L17 20L19 20L19 19L20 19L20 20L22 20L22 19L23 19L23 20L25 20L25 22L26 22L26 23L27 23L27 21L28 21L28 19L27 19L27 21L26 21L26 19L25 19L25 18L27 18L27 17L26 17L26 16L27 16L27 15L26 15L26 14L25 14L25 16L24 16L24 17L23 17L23 16L22 16L22 15L21 15L21 14L20 14L20 11L21 11L21 10L20 10L20 9L19 9L19 11L18 11L18 9L17 9L17 8L19 8L19 7L18 7L18 6L17 6L17 8L15 8L15 9L13 9L13 7L14 7L14 5L13 5L13 4L15 4L15 2ZM20 2L20 3L21 3L21 2ZM16 4L16 5L15 5L15 7L16 7L16 5L17 5L17 4ZM20 4L20 5L21 5L21 4ZM12 5L12 7L11 7L11 6L10 6L10 7L11 7L11 8L12 8L12 7L13 7L13 5ZM3 9L3 10L4 10L4 9ZM9 9L9 10L10 10L10 9ZM17 11L17 12L18 12L18 11ZM2 12L2 13L3 13L3 15L5 15L5 14L4 14L4 13L3 13L3 12ZM13 13L13 14L14 14L14 13ZM1 16L1 17L2 17L2 16ZM6 17L6 18L7 18L7 19L6 19L6 20L7 20L7 19L8 19L8 18L9 18L9 17L8 17L8 18L7 18L7 17ZM20 17L20 18L22 18L22 17ZM0 18L0 19L1 19L1 18ZM15 18L15 20L17 20L17 19L16 19L16 18ZM23 18L23 19L24 19L24 18ZM3 19L3 20L4 20L4 19ZM21 21L21 24L24 24L24 21ZM22 22L22 23L23 23L23 22ZM25 24L25 26L26 26L26 24ZM19 25L19 26L20 26L20 27L21 27L21 25ZM23 25L23 26L24 26L24 25ZM27 26L27 28L28 28L28 26ZM22 28L22 29L24 29L24 28Z" fill="#000000"/></g></g></svg>
